{"accessors" : [{"bufferView" : 0, "byteOffset" : 0, "componentType" : 5123, "count" : 1140, "type" : "SCALAR", "max" : [1099], "min" : [0]}, {"bufferView" : 1, "byteOffset" : 0, "componentType" : 5126, "count" : 1100, "type" : "VEC3", "max" : [9.259739875793457, 17.54960060119629, 5.698599815368652], "min" : [-8.95730972290039, -0.7426329851150513, -10.41759967803955], "name" : "POSITION"}, {"bufferView" : 1, "byteOffset" : 12, "componentType" : 5126, "count" : 1100, "type" : "VEC3", "max" : [0.9846698641777039, 0.9997844099998474, 0.9951135516166687], "min" : [-0.9753382802009583, -0.9945275187492371, -0.9975801706314087], "name" : "NORMAL"}, {"bufferView" : 1, "byteOffset" : 24, "componentType" : 5126, "count" : 1100, "type" : "VEC2", "max" : [0.7496910095214844, 0.9900000095367432], "min" : [0.009999999776482582, 0.009999990463256836], "name" : "TEXCOORD_0"}, {"bufferView" : 0, "byteOffset" : 2280, "componentType" : 5123, "count" : 360, "type" : "SCALAR", "max" : [359], "min" : [0]}, {"bufferView" : 2, "byteOffset" : 0, "componentType" : 5126, "count" : 360, "type" : "VEC3", "max" : [13.91919994354248, 25.799100875854492, 7.3297200202941895], "min" : [-14.06190013885498, 8.734769821166992, -13.472000122070312], "name" : "POSITION"}, {"bufferView" : 2, "byteOffset" : 12, "componentType" : 5126, "count" : 360, "type" : "VEC3", "max" : [0.9856815934181213, 0.9966074228286743, 0.9832322597503662], "min" : [-0.9856815934181213, -0.9966074228286743, -0.9832323789596558], "name" : "NORMAL"}, {"bufferView" : 2, "byteOffset" : 24, "componentType" : 5126, "count" : 360, "type" : "VEC2", "max" : [0.9172409772872925, 0.9900000095367432], "min" : [0.009999999776482582, 0.009999990463256836], "name" : "TEXCOORD_0"}], "asset" : {"generator" : "Aspose.3D 24.1.0", "version" : "2.0"}, "buffers" : [{"uri" : "data:application/octet-stream;base64,", "byteLength" : 51012}], "bufferViews" : [{"buffer" : 0, "byteOffset" : 0, "byteLength" : 3000, "target" : 34963}, {"buffer" : 0, "byteOffset" : 3004, "byteLength" : 36480, "byteStride" : 32, "target" : 34962}, {"buffer" : 0, "byteOffset" : 39488, "byteLength" : 11520, "byteStride" : 32, "target" : 34962}], "cameras" : [{"perspective" : {"aspectRatio" : 1.3333333333333333, "yfov" : 0.43833943764363487, "zfar" : 10000, "znear" : 0.01}, "type" : "perspective", "name" : "Camera"}], "materials" : [{"name" : "Bark", "pbrMetallicRoughness" : {"baseColorFactor" : [0.207595, 0.138513, 0.055181, 1], "metallicFactor" : 1, "roughnessFactor" : 1}, "emissiveFactor" : [0, 0, 0], "alphaMode" : "OPAQUE", "doubleSided" : false}, {"name" : "Tree", "pbrMetallicRoughness" : {"baseColorFactor" : [0.256861, 0.440506, 0.110769, 1], "metallicFactor" : 1, "roughnessFactor" : 1}, "emissiveFactor" : [0, 0, 0], "alphaMode" : "OPAQUE", "doubleSided" : false}], "meshes" : [{"primitives" : [{"attributes" : {"POSITION" : 1, "NORMAL" : 2, "TEXCOORD_0" : 3}, "indices" : 0, "material" : 0, "mode" : 4}, {"attributes" : {"POSITION" : 5, "NORMAL" : 6, "TEXCOORD_0" : 7}, "indices" : 4, "material" : 1, "mode" : 4}], "name" : ""}], "nodes" : [{"mesh" : 0, "name" : "Tree_lp_11"}, {"camera" : 0, "matrix" : [1, 0, 0, 0, 0, 0.9961946980917455, -0.08715574274765818, 0, 0, 0.08715574274765818, 0.9961946980917455, 0, 0, 0.75, 4, 1], "name" : "Camera"}], "scene" : 0, "scenes" : [{"nodes" : [0, 1]}]}